<?xml version="1.0" standalone="no"?>
<!DOCTYPE svg PUBLIC "-//W3C//DTD SVG 20010904//EN"
 "http://www.w3.org/TR/2001/REC-SVG-20010904/DTD/svg10.dtd">
<svg version="1.0" xmlns="http://www.w3.org/2000/svg"
 width="70.000000pt" height="70.000000pt" viewBox="0 0 70.000000 70.000000"
 preserveAspectRatio="xMidYMid meet">
<metadata>
Created by potrace 1.11, written by Peter Selinger 2001-2013
</metadata>
<g transform="translate(0.000000,70.000000) scale(0.100000,-0.100000)"
fill="#000000" stroke="none">
<path d="M0 350 l0 -350 350 0 350 0 0 350 0 350 -350 0 -350 0 0 -350z m394
253 c80 -22 156 -95 174 -165 33 -129 -12 -246 -118 -309 -47 -29 -114 -40
-220 -37 l-105 3 -3 249 c-2 175 1 253 9 262 17 21 186 19 263 -3z"/>
<path d="M248 504 c-5 -4 -8 -74 -8 -155 0 -125 2 -148 16 -153 21 -8 92 3
126 20 84 43 93 209 13 267 -26 18 -135 34 -147 21z"/>
</g>
</svg>
