<svg xmlns="http://www.w3.org/2000/svg" viewBox="0 0 154 38" width="154" heigth="38" fill="#85829d">
   <path
      d="M149,1a4,4,0,0,1,4,4V33a4,4,0,0,1-4,4H5a4,4,0,0,1-4-4V5A4,4,0,0,1,5,1H149m0-1H5A5,5,0,0,0,0,5V33a5,5,0,0,0,5,5H149a5,5,0,0,0,5-5V5a5,5,0,0,0-5-5Z"/>
   <path
      d="M24.25,11.52a6.62,6.62,0,0,0-2.45-1.21,14.78,14.78,0,0,0-3.92-.43H9.55v1l2.42.36V27.39l-2.24.38v1h9.84v-1l-3.15-.38v-6H19a10,10,0,0,0,3.39-.5,5.53,5.53,0,0,0,2.15-1.3,4.43,4.43,0,0,0,1.09-1.9,8.43,8.43,0,0,0,.27-2.24,6.84,6.84,0,0,0-.36-2.19A4,4,0,0,0,24.25,11.52Zm-7.83,9V11c3.26,0,4.92.59,4.92,4.5s-2,5-4.92,5Zm44.83,1a3.81,3.81,0,0,0-1-1.35,5,5,0,0,0-1.67-1,9.35,9.35,0,0,0-2.4-.52,6,6,0,0,0,1.48-.55,4.27,4.27,0,0,0,1.24-1,4.35,4.35,0,0,0,1.18-3,4.42,4.42,0,0,0-.34-1.79A3.18,3.18,0,0,0,58.53,11a6.78,6.78,0,0,0-2.26-.84,17.32,17.32,0,0,0-3.52-.3h-9.2v1l2.44.36V27.6l-3.39.13-2.82-3.52A20.71,20.71,0,0,0,42.1,18h1.83V17H38.48V18l1.85.29a14.42,14.42,0,0,1-1.4,4.8c-2-2.61-3.49-4.54-4.52-6,1.93-1,4.07-2.21,4.07-4.71,0-1.94-1.61-3.55-4.33-3.55-3.23,0-5.26,2.17-5.26,4.48,0,1.42.36,2.54,2,5-3.35,2-4.19,4.34-4.19,6,0,2.83,2.09,4.8,5.47,4.8a7.72,7.72,0,0,0,5.25-2c.42.57.9,1.15,1.36,1.76h14.9a13.46,13.46,0,0,0,3.63-.38,7,7,0,0,0,2.44-1.16,4.26,4.26,0,0,0,1.35-1.79,5.66,5.66,0,0,0,.44-2.26A4.74,4.74,0,0,0,61.25,21.52Zm-27-11.27a2.14,2.14,0,0,1,2.15,2.13h0v.14c0,2.09-.88,2.81-2.4,4-1.69-2.49-2-3.09-2-3.93a2.21,2.21,0,0,1,2.1-2.32h0Zm-.48,17.06c-2,0-3.46-1.12-3.46-3.7a6.31,6.31,0,0,1,1.48-4.09c1.13,1.59,2.74,3.7,4.93,6.54a4.43,4.43,0,0,1-3,1.24ZM50.45,10.9c2.71,0,5,.28,5,3.31,0,2.32-.8,3.82-3,3.82h-2Zm0,17V19.07c3.17,0,6.45.31,6.45,4.22,0,3.47-3.09,4.68-6.45,4.54ZM63.1,13a2.71,2.71,0,0,1,.77-2,2.64,2.64,0,0,1,3.73-.05l.06.05a2.87,2.87,0,0,1,0,3.93,2.63,2.63,0,0,1-3.72.06l-.06-.06A2.68,2.68,0,0,1,63.1,13Zm.46,0a2.24,2.24,0,0,0,.68,1.64,2.18,2.18,0,0,0,3.07.06h0l.06-.06a2.39,2.39,0,0,0,0-3.27,2.18,2.18,0,0,0-3.08-.06l-.06.06A2.2,2.2,0,0,0,63.59,13Zm1.67.27h.6a.61.61,0,0,1,.41.13.56.56,0,0,1,.13.39v.51a.89.89,0,0,0,0,.23H67v-.06a.67.67,0,0,1,0-.2v-.47a1.13,1.13,0,0,0-.08-.48.67.67,0,0,0-.3-.32,1,1,0,0,0,.3-.27.75.75,0,0,0,.1-.36.91.91,0,0,0-.37-.73,1.41,1.41,0,0,0-.87-.23h-1.1v3.15h.57V13.24Zm0-.5h.48a1.13,1.13,0,0,0,.48-.11.36.36,0,0,0,.19-.32.41.41,0,0,0-.15-.37.82.82,0,0,0-.51-.11H65.2Zm15.18.12A1.78,1.78,0,0,1,81,14.26h-1.1a1.24,1.24,0,0,0-.25-.83,1,1,0,0,0-.81-.28.9.9,0,0,0-.78.4,1.7,1.7,0,0,0-.29,1v1.09a1.69,1.69,0,0,0,.31,1,1,1,0,0,0,.82.4.94.94,0,0,0,.76-.28,1.18,1.18,0,0,0,.24-.81h1.06a1.79,1.79,0,0,1-.53,1.4,2.16,2.16,0,0,1-1.54.51,2.07,2.07,0,0,1-1.59-.63,2.26,2.26,0,0,1-.61-1.62v-1a2.28,2.28,0,0,1,.6-1.63,2,2,0,0,1,1.55-.63,2.2,2.2,0,0,1,1.57.52Zm6,5L86,16.68H84.1l-.37,1.17h-1.1l1.87-5.42h1.12l1.86,5.42Zm-.64-2-.68-2.14h0l-.67,2.14Zm6.85-1.61h0v3.63h1.12V12.41h-1.1L90.44,16h0V12.43H89.3v5.42h1.08Zm-1.08-2.35a1.43,1.43,0,0,0,1-.3,1,1,0,0,0,.33-.77h-.8a.47.47,0,0,1-.12.32.56.56,0,0,1-.71,0,.47.47,0,0,1-.12-.32h-.79a.92.92,0,0,0,.33.77,1.43,1.43,0,0,0,.93.33Zm8.32.54H95.63v.87h1.54v4.6h1.09V13.3h1.52ZM107,18a2.19,2.19,0,0,0,1.53-.51,1.8,1.8,0,0,0,.54-1.4H108a1.23,1.23,0,0,1-.24.81,1.1,1.1,0,0,1-1.55-.09l0,0a1.63,1.63,0,0,1-.31-1V14.59a1.61,1.61,0,0,1,.29-1,.9.9,0,0,1,.78-.4,1,1,0,0,1,.8.29,1.18,1.18,0,0,1,.26.83H109a1.74,1.74,0,0,0-.55-1.41,2.22,2.22,0,0,0-1.58-.52,2,2,0,0,0-1.55.64,2.25,2.25,0,0,0-.6,1.62v1.08a2.29,2.29,0,0,0,.61,1.63A2.11,2.11,0,0,0,107,18Zm4.66-.68a2.29,2.29,0,0,1-.63-1.65v-.93a2.33,2.33,0,0,1,.63-1.66,2.14,2.14,0,0,1,1.63-.67,2.22,2.22,0,0,1,1.65.67,2.37,2.37,0,0,1,.64,1.66v1a2.27,2.27,0,0,1-.64,1.66,2.35,2.35,0,0,1-3.28,0Zm.46-1.65a1.74,1.74,0,0,0,.32,1.06,1.14,1.14,0,0,0,1.61.12l.12-.12a1.67,1.67,0,0,0,.31-1.06v-.93a1.58,1.58,0,0,0-.32-1,1,1,0,0,0-.87-.4,1,1,0,0,0-.86.4,1.8,1.8,0,0,0-.31,1Zm6.11,1.9a2.58,2.58,0,0,0,1.48.4,2.79,2.79,0,0,0,1.62-.42,1.37,1.37,0,0,0,.63-1.18,1.34,1.34,0,0,0-.26-.79,1.47,1.47,0,0,0-.74-.48,1.59,1.59,0,0,0,.68-.49,1.1,1.1,0,0,0,.24-.68,1.34,1.34,0,0,0-.57-1.15,2.73,2.73,0,0,0-1.58-.41,2.38,2.38,0,0,0-1.44.42,1.25,1.25,0,0,0-.57,1.1h1.06a.6.6,0,0,1,.27-.5,1.11,1.11,0,0,1,.68-.2,1.34,1.34,0,0,1,.8.21.63.63,0,0,1,.27.52.69.69,0,0,1-.25.57,1.2,1.2,0,0,1-.76.2H119v.88h.74a1.3,1.3,0,0,1,.82.19.73.73,0,0,1,.27.63.66.66,0,0,1-.31.56,1.45,1.45,0,0,1-.84.22,1.19,1.19,0,0,1-.73-.22.73.73,0,0,1-.29-.54h-1.06a1.26,1.26,0,0,0,.6,1.2ZM128.64,17h.67l-.1,2.17h-1V17.8h-3.34v1.35h-1L123.78,17h.32a2,2,0,0,0,.51-.8,5,5,0,0,0,.26-1.58l.15-2.23h3.54Zm-1.09-3.77H126.1L126,14.6a6.06,6.06,0,0,1-.2,1.4,3.38,3.38,0,0,1-.42,1h2.13Zm6.55,3.41h-1.9l-.37,1.17h-1.1l1.87-5.43h1.09l1.86,5.43h-1.1Zm-.28-.86-.67-2.13h0l-.68,2.13Zm6.92-3.39v2.36h-2.22V12.43h-1.09v5.42h1.09V15.61h2.22v2.26h1.07V12.45ZM80.64,23.52a1.32,1.32,0,0,1,.24.79,1.42,1.42,0,0,1-.51,1.21,2.39,2.39,0,0,1-1.47.4H76.81v-5.4h1.84a2.69,2.69,0,0,1,1.47.37A1.27,1.27,0,0,1,80.65,22a1.17,1.17,0,0,1-.19.68,1.25,1.25,0,0,1-.59.45A1.14,1.14,0,0,1,80.64,23.52Zm-2.71-.78h.78a1.16,1.16,0,0,0,.68-.18.62.62,0,0,0,.24-.52.71.71,0,0,0-.24-.56,1.16,1.16,0,0,0-.68-.18H78Zm1.89,1.57a.9.9,0,0,0-.2-.61.8.8,0,0,0-.61-.21H77.93v1.56h1a1,1,0,0,0,.68-.19.7.7,0,0,0,.19-.55Zm10-3.39a1.74,1.74,0,0,1,.06,2.45l-.06.06a2.15,2.15,0,0,1-1.48.48h-1v2H86.22V20.52h2.17a2.14,2.14,0,0,1,1.46.47Zm-.52,1.3a.94.94,0,0,0-.2-.7.91.91,0,0,0-.68-.26H87.31v1.82h1.08a.9.9,0,0,0,.68-.25A.86.86,0,0,0,89.3,22.22Zm4.34,1.3h2.25v-.84H93.64V21.32h2.63v-.8H92.55V26h3.73v-.83H93.64Zm8,.68h0l-2.23-3.68H98.32V26h1.09V22.22h0l2.2,3.72h1.08V20.52h-1.08Zm7.06.8.78.92h-1.21l-.32-.31a2.46,2.46,0,0,1-.68.31,2.2,2.2,0,0,1-.72.1,1.83,1.83,0,0,1-1.29-.42,1.43,1.43,0,0,1-.48-1.12,1.23,1.23,0,0,1,.24-.76,3.42,3.42,0,0,1,.74-.68,3.4,3.4,0,0,1-.38-.63,1.43,1.43,0,0,1-.12-.58,1.34,1.34,0,0,1,.41-1,1.5,1.5,0,0,1,1.07-.38,1.29,1.29,0,0,1,1,.36,1.22,1.22,0,0,1,.37.9,1.36,1.36,0,0,1-.18.68,1.8,1.8,0,0,1-.51.52l-.34.25,1,1.21a2,2,0,0,0,.28-1h.82a3.4,3.4,0,0,1-.13.95,2.21,2.21,0,0,1-.34.73Zm-2.42-3.18a.76.76,0,0,0,.08.33,2.35,2.35,0,0,0,.24.37l.32-.21a.61.61,0,0,0,.28-.27.72.72,0,0,0,.08-.32.47.47,0,0,0-.49-.47h0a.44.44,0,0,0-.37.16.61.61,0,0,0-.13.39Zm1.15,3.11-1.11-1.29h-.07A1.1,1.1,0,0,0,106,24a1,1,0,0,0-.07.34.76.76,0,0,0,.21.55.66.66,0,0,0,.53.22,1.78,1.78,0,0,0,.78-.21Zm7.86-1.41a1.52,1.52,0,0,1-.27,2,2.31,2.31,0,0,1-1.46.41h-2.1V20.52h1.84a2.62,2.62,0,0,1,1.5.37,1.27,1.27,0,0,1,.53,1.12,1.17,1.17,0,0,1-.19.68,1.25,1.25,0,0,1-.59.45,1.15,1.15,0,0,1,.74.45Zm-2.71-.77h.77a1.13,1.13,0,0,0,.67-.18.62.62,0,0,0,.24-.52.68.68,0,0,0-.24-.56,1.13,1.13,0,0,0-.67-.18h-.75Zm1.89,1.57a.72.72,0,0,0-.81-.82h-1.08v1.56h1a1,1,0,0,0,.68-.19.65.65,0,0,0,.19-.53Zm7.41,1.14a.73.73,0,0,0,.21.36v.09H121a.6.6,0,0,1-.2-.41,4.51,4.51,0,0,1,0-.52v-.39a.82.82,0,0,0-.22-.63.8.8,0,0,0-.62-.22h-1v2.17h-1.09V20.52h2a2.3,2.3,0,0,1,1.46.42,1.46,1.46,0,0,1,.52,1.19,1.19,1.19,0,0,1-.22.73,1.49,1.49,0,0,1-.68.48,1.24,1.24,0,0,1,.68.48,1.57,1.57,0,0,1,.21.82V25a2.47,2.47,0,0,0,.11.47Zm-1.18-3.35a.78.78,0,0,0-.23-.59.89.89,0,0,0-.68-.23h-1v1.62h.94a1.11,1.11,0,0,0,.68-.2.74.74,0,0,0,.23-.58Zm6-1.65,1.86,5.42h-1.1l-.36-1.18h-1.91l-.37,1.17h-1.11l1.87-5.42Zm.12,3.39-.72-2.15h0l-.68,2.14Zm3.67,2h1.1v-5.4h-1.1Zm6.85-1.72h0l-2.19-3.72H134.1v5.42h1.1V22.22h0l2.19,3.72h1.09V20.52h-1.09Z"/>

</svg>
