<svg id="Calque_2" data-name="Calque 2" xmlns="http://www.w3.org/2000/svg" width="13.03mm" height="20.2mm" viewBox="0 0 36.92 57.27"><title>geo</title><path d="M18.46,57.27h0a2,2,0,0,1-1.72-1C15,53.41,0,27.83,0,18.46a18.46,18.46,0,0,1,36.92,0c0,9.37-15,34.95-16.74,37.83A2,2,0,0,1,18.46,57.27ZM18.46,4A14.48,14.48,0,0,0,4,18.46c0,6.24,9.25,23.72,14.46,32.83,5.21-9.11,14.46-26.6,14.46-32.83A14.48,14.48,0,0,0,18.46,4Z" transform="translate(0)"/><path d="M18.46,28.24a9.78,9.78,0,1,1,9.78-9.78A9.79,9.79,0,0,1,18.46,28.24Zm0-15.56a5.78,5.78,0,1,0,5.78,5.78A5.79,5.79,0,0,0,18.46,12.68Z" transform="translate(0)"/></svg>